Coordinates
version=1
nRows=17
nColumns=40
inDegrees=yes

Units are S.I. units (second, meters, Newtons, ...)
Angles are in degrees.

endheader
time	pelvis_tilt	pelvis_list	pelvis_rotation	pelvis_tx	pelvis_ty	pelvis_tz	hip_flexion_r	hip_adduction_r	hip_rotation_r	knee_angle_r	knee_angle_r_beta	ankle_angle_r	subtalar_angle_r	mtp_angle_r	hip_flexion_l	hip_adduction_l	hip_rotation_l	knee_angle_l	knee_angle_l_beta	ankle_angle_l	subtalar_angle_l	mtp_angle_l	lumbar_extension	lumbar_bending	lumbar_rotation	arm_flex_r	arm_add_r	arm_rot_r	elbow_flex_r	pro_sup_r	wrist_flex_r	wrist_dev_r	arm_flex_l	arm_add_l	arm_rot_l	elbow_flex_l	pro_sup_l	wrist_flex_l	wrist_dev_l
     24.70928571	     -3.13501455	     -3.82771645	    -11.20284466	      0.93115574	      0.92768083	      0.40542521	     25.47988186	     -3.58335444	     -1.71163787	     31.63085491	     31.63085491	      8.42789504	     -5.72407551	     -1.30922126	      3.99516913	     -0.33343261	     -8.08613827	     19.49263664	     19.49263664	     20.96450864	    -14.07030108	      6.69846966	    -11.04052709	     10.41633835	      0.05472686	    -20.18218888	    -14.83371131	    -24.99112962	     27.44648424	     47.64320672	      0.00000000	      0.00000000	     28.02164897	    -19.40182960	    -10.09880912	     83.41842056	     48.16303045	      0.00000000	      0.00000000
     24.72857143	     -3.35248474	     -3.56810239	    -11.74809886	      0.92939619	      0.92652007	      0.40884726	     25.30978383	     -3.47284522	     -2.05460824	     28.80492947	     28.80492947	      8.25922874	     -3.60908202	     -0.89977016	      3.53652167	     -0.21668194	     -8.67997741	     18.82314167	     18.82314167	     21.09238443	    -13.74566588	      6.34653392	    -10.89970947	     10.18742486	      0.24206937	    -20.50994695	    -14.17709010	    -25.18567572	     27.32328279	     47.65050310	      0.00000000	      0.00000000	     28.87262477	    -19.76765404	    -10.69735992	     84.84308544	     48.23614219	      0.00000000	      0.00000000
     24.74785714	     -3.32233337	     -3.31835071	    -12.26816738	      0.92820732	      0.92522407	      0.41237330	     24.99457800	     -3.60530639	     -3.01559187	     26.79774374	     26.79774374	      8.55917241	     -0.37020911	     -0.32998646	      2.76402216	     -0.09899335	     -9.52183181	     18.10627841	     18.10627841	     20.71525448	    -13.25686172	      4.16530516	    -11.12174682	      9.95483234	     -0.27399250	    -20.10768921	    -13.64499607	    -26.62504730	     27.57693529	     47.70013502	      0.00000000	      0.00000000	     28.22079667	    -20.23469769	    -13.07096194	     88.79066566	     48.46636099	      0.00000000	      0.00000000
     24.76714286	     -3.36161074	     -3.12179595	    -12.72255279	      0.92705720	      0.92385961	      0.41617524	     24.71668057	     -3.46678767	     -3.42495397	     25.17787931	     25.17787931	      8.40476334	      1.23726233	     -0.01525735	      2.22009126	     -0.03282870	     -9.99456451	     17.73005349	     17.73005349	     20.90533410	    -13.06938033	      3.70014840	    -11.17149300	      9.77642247	      0.02628208	    -19.89944648	    -13.03100021	    -26.71702977	     27.47215723	     47.69694939	      0.00000000	      0.00000000	     28.84913594	    -20.32842296	    -13.55210638	     89.89020456	     48.52327477	      0.00000000	      0.00000000
     24.78642857	     -3.50179692	     -2.81534877	    -13.12267706	      0.92602755	      0.92219602	      0.42008949	     24.73775408	     -3.40409907	     -3.61068862	     24.31384463	     24.31384463	      8.31334978	      2.23329034	      0.08234408	      1.93486943	      0.10366180	    -10.39974683	     17.60263346	     17.60263346	     21.15928541	    -12.97817398	      3.33053024	    -11.06993108	      9.52239443	      0.24727302	    -19.42968222	    -12.38861628	    -26.69246284	     27.58256887	     47.68381099	      0.00000000	      0.00000000	     29.35976105	    -20.45821616	    -13.95335303	     90.68946466	     48.56797265	      0.00000000	      0.00000000
     24.80571429	     -3.53615555	     -2.66198476	    -13.46614435	      0.92547397	      0.92079190	      0.42421086	     24.59958803	     -3.32105326	     -4.14466835	     23.89129081	     23.89129081	      8.14896555	      3.48807539	     -0.59020029	      1.44290389	      0.03818955	    -11.05613378	     17.40111478	     17.40111478	     21.03232139	    -12.57801545	      1.73715783	    -11.15260944	      9.39854831	     -0.27517043	    -18.25233344	    -11.99247240	    -26.87563964	     27.80258237	     47.63517982	      0.00000000	      0.00000000	     28.51901426	    -20.57804831	    -16.04265661	     93.27391548	     48.74744188	      0.00000000	      0.00000000
     24.82500000	     -3.67291091	     -2.48784141	    -13.74234060	      0.92500850	      0.91944564	      0.42851262	     24.66442589	     -3.14043965	     -4.15209609	     23.97296356	     23.97296356	      8.15953977	      3.64335664	     -0.73534626	      1.14035850	      0.01613961	    -11.28325509	     17.35960230	     17.35960230	     21.24782026	    -12.63889033	      1.62080623	    -11.04847253	      9.30035982	      0.01166394	    -17.45199970	    -11.46306828	    -26.73754138	     28.02869234	     47.61376810	      0.00000000	      0.00000000	     28.70576318	    -20.46911910	    -16.15065422	     93.54678697	     48.76066725	      0.00000000	      0.00000000
     24.84428571	     -3.81849348	     -2.38603500	    -13.92786420	      0.92483269	      0.91834786	      0.43290568	     24.67909339	     -2.91984641	     -4.11643210	     24.27622676	     24.27622676	      8.25135941	      3.65276770	     -0.93617745	      0.82122345	     -0.09697672	    -11.43918305	     17.32305816	     17.32305816	     21.44279516	    -12.66354165	      1.53904770	    -10.93462755	      9.30466599	      0.30673647	    -16.55098764	    -11.02216890	    -26.60717318	     28.33203011	     47.59298303	      0.00000000	      0.00000000	     28.69201567	    -20.25227094	    -16.21787997	     93.72745442	     48.76821215	      0.00000000	      0.00000000
     24.86357143	     -3.88853622	     -2.16061401	    -14.07826272	      0.92484113	      0.91738280	      0.43750536	     24.82138539	     -2.80603271	     -3.77631589	     25.08024368	     25.08024368	      8.37086805	      2.96870419	     -1.68332998	      0.42376467	     -0.12183621	    -11.84958462	     17.26882848	     17.26882848	     21.63777979	    -12.21240411	      1.30612972	    -10.91558905	      9.05946856	      0.31588296	    -15.54743602	    -10.70337634	    -26.38146328	     28.86755685	     47.54449097	      0.00000000	      0.00000000	     28.34143321	    -19.86570097	    -17.06970901	     94.56634081	     48.83611793	      0.00000000	      0.00000000
     24.88285714	     -4.07085670	     -2.17247058	    -14.08384188	      0.92504148	      0.91686245	      0.44210939	     24.72013608	     -2.50760658	     -3.74407393	     25.49945850	     25.49945850	      8.54135482	      2.73156415	     -1.90652028	      0.12000914	     -0.40184043	    -11.88078901	     17.25712986	     17.25712986	     21.71053533	    -12.20001442	      1.30360636	    -10.79032000	      9.18554288	      0.50504045	    -14.47478478	    -10.44520628	    -26.25067854	     29.28410194	     47.52152167	      0.00000000	      0.00000000	     28.00570709	    -19.45609068	    -17.04479609	     94.57267551	     48.83226307	      0.00000000	      0.00000000
     24.90214286	     -4.23380531	     -2.14432234	    -14.00530284	      0.92537158	      0.91647434	      0.44702694	     24.64550706	     -2.07069472	     -3.04357056	     26.01550087	     26.01550087	      8.28890358	      0.99298158	     -3.33438684	     -0.12953865	     -0.77957792	    -12.34976156	     17.43400846	     17.43400846	     21.99362898	    -11.36480800	      1.34938189	    -10.67278687	      9.15155654	     -0.60985020	    -13.02314768	    -10.53520084	    -25.08838807	     30.48300806	     47.33457908	      0.00000000	      0.00000000	     26.38147371	    -19.28366890	    -19.45316653	     96.08985714	     49.00133491	      0.00000000	      0.00000000
     24.92142857	     -4.42936179	     -2.11544316	    -13.81819106	      0.92572140	      0.91645192	      0.45171007	     24.46258508	     -1.86940242	     -3.16091096	     26.34969437	     26.34969437	      8.58836108	      0.68154245	     -3.47092796	     -0.37823240	     -1.05836633	    -12.25728548	     17.44208789	     17.44208789	     21.89918775	    -11.29974355	      1.41317043	    -10.59441041	      9.16741799	     -0.35583723	    -12.06961583	    -10.51678352	    -24.99243766	     30.84041243	     47.31820864	      0.00000000	      0.00000000	     25.98936881	    -18.84502348	    -19.27259447	     95.91412583	     48.98345642	      0.00000000	      0.00000000
     24.94071429	     -4.57311630	     -2.14643122	    -13.56241093	      0.92616196	      0.91672666	      0.45661836	     24.27484448	     -1.43539290	     -2.60235088	     26.79878389	     26.79878389	      8.75281830	     -0.84090578	     -3.29316110	     -0.66692898	     -1.46050651	    -12.32219010	     17.52637684	     17.52637684	     21.86749367	    -10.91606686	      1.53138736	    -10.42934005	      9.18290481	     -0.74173396	    -10.91731137	    -10.65168707	    -24.74602991	     31.59072555	     47.26576823	      0.00000000	      0.00000000	     25.14923533	    -18.52927228	    -19.38804682	     95.15368701	     48.96880294	      0.00000000	      0.00000000
     24.96000000	     -4.78435615	     -2.25164765	    -13.22155218	      0.92648637	      0.91725586	      0.46150112	     23.91630860	     -1.00721860	     -2.50880208	     26.81504647	     26.81504647	      8.99052356	     -1.70787777	     -2.93283164	     -0.75556522	     -2.03917530	    -12.44456529	     17.85776210	     17.85776210	     21.86115074	    -10.32639521	      1.66685444	    -10.30457772	      9.25855372	     -0.96959323	     -9.94296497	    -10.89514164	    -24.36770845	     32.46012241	     47.19020492	      0.00000000	      0.00000000	     24.40828944	    -18.04485662	    -19.60825999	     94.60943555	     48.96407598	      0.00000000	      0.00000000
     24.97928571	     -4.99124668	     -2.35119165	    -12.81133877	      0.92684029	      0.91801622	      0.46630040	     23.46352135	     -0.66565344	     -2.69165494	     26.64481797	     26.64481797	      9.20791887	     -2.12914720	     -2.66720341	     -0.80674705	     -2.59618814	    -12.38321209	     18.20682154	     18.20682154	     21.68954689	     -9.96377901	      1.76318280	    -10.17298765	      9.31485153	     -1.11330028	     -9.01175544	    -11.25335146	    -24.18524077	     33.14856704	     47.14555222	      0.00000000	      0.00000000	     23.60252442	    -17.53256531	    -19.46805156	     93.89503551	     48.93369152	      0.00000000	      0.00000000
     24.99857143	     -5.20213094	     -2.45918496	    -12.36185909	      0.92704463	      0.91893963	      0.47108694	     22.94844131	     -0.32411595	     -2.96279397	     26.30784721	     26.30784721	      9.41005598	     -2.48072833	     -2.36041474	     -0.73030869	     -3.21070737	    -12.31389945	     18.74107958	     18.74107958	     21.47120946	     -9.59775378	      1.78277619	    -10.05532213	      9.34904898	     -1.26301782	     -8.09278172	    -11.68926931	    -24.03867828	     33.85147313	     47.10437800	      0.00000000	      0.00000000	     22.78526070	    -17.03634938	    -19.25670502	     92.96209854	     48.89427461	      0.00000000	      0.00000000
     25.01785714	     -5.41526155	     -2.59404122	    -11.88340561	      0.92714612	      0.91999056	      0.47589640	     22.35123632	      0.04085851	     -3.33332575	     25.79159575	     25.79159575	      9.58579927	     -2.70465710	     -2.03132905	     -0.51103446	     -3.90162880	    -12.22469009	     19.50646803	     19.50646803	     21.20644222	     -9.27434580	      1.70166282	     -9.92909302	      9.36860094	     -1.39770226	     -7.19031711	    -12.21505758	    -23.90103144	     34.56082430	     47.06434837	      0.00000000	      0.00000000	     21.94926928	    -16.56637739	    -18.95626799	     91.78720750	     48.84413933	      0.00000000	      0.00000000
